<?xml version="1.0" encoding="UTF-8"?>
<svg width="24px" height="24px" viewBox="0 0 24 24" version="1.1" xmlns="http://www.w3.org/2000/svg">
    <title>UPI</title>
    <g stroke="none" stroke-width="1" fill="none" fill-rule="evenodd">
        <circle fill="#00A9C0" cx="12" cy="12" r="12"></circle>
        <path d="M12,6 C8.68629,6 6,8.68629 6,12 C6,15.3137 8.68629,18 12,18 C15.3137,18 18,15.3137 18,12 C18,8.68629 15.3137,6 12,6 Z M12,16.5 C9.51472,16.5 7.5,14.4853 7.5,12 C7.5,9.51472 9.51472,7.5 12,7.5 C14.4853,7.5 16.5,9.51472 16.5,12 C16.5,14.4853 14.4853,16.5 12,16.5 Z" fill="#FFFFFF"></path>
        <path d="M13.0607,10.0607 L12,11.1213 L10.9393,10.0607 C10.6464,9.76777 10.1716,9.76777 9.87868,10.0607 C9.58579,10.3536 9.58579,10.8284 9.87868,11.1213 L11.2929,12.5355 C11.6834,12.9261 12.3166,12.9261 12.7071,12.5355 L14.1213,11.1213 C14.4142,10.8284 14.4142,10.3536 14.1213,10.0607 C13.8284,9.76777 13.3536,9.76777 13.0607,10.0607 Z" fill="#FFFFFF"></path>
    </g>
</svg>
